<?xml version="1.0" standalone="no"?>
<!DOCTYPE svg PUBLIC "-//W3C//DTD SVG 20010904//EN"
 "http://www.w3.org/TR/2001/REC-SVG-20010904/DTD/svg10.dtd">
<svg version="1.0" xmlns="http://www.w3.org/2000/svg"
 width="500.000000pt" height="500.000000pt" viewBox="0 0 500.000000 500.000000"
 preserveAspectRatio="xMidYMid meet">
<metadata>
Created by potrace 1.14, written by Peter Selinger 2001-2017
</metadata>
<g transform="translate(0.000000,500.000000) scale(0.100000,-0.100000)"
fill="#000000" stroke="none">
<path d="M2413 4362 c-73 -79 -91 -101 -125 -149 -16 -24 -37 -43 -46 -43 -36
0 -261 -83 -353 -129 -95 -48 -215 -122 -254 -158 -96 -85 -127 -117 -180
-178 -87 -100 -115 -139 -175 -239 -99 -165 -165 -330 -201 -498 -30 -137 -32
-400 -6 -528 35 -163 121 -376 201 -494 25 -38 46 -70 46 -73 0 -8 105 -131
169 -197 126 -130 325 -259 481 -312 30 -10 56 -19 57 -19 2 -1 -6 -26 -16
-56 -36 -102 -45 -284 -21 -404 12 -60 44 -115 65 -115 8 0 15 1 15 3 0 1 -7
40 -14 87 -16 94 -14 277 3 355 6 28 14 63 17 78 7 30 15 31 112 11 29 -6 44
-27 25 -36 -22 -9 -56 -77 -72 -140 -31 -123 -8 -256 60 -352 32 -44 287 -306
299 -306 16 0 281 277 314 328 78 124 77 323 -3 442 -16 24 -28 47 -25 51 3 6
36 15 96 25 22 4 30 0 41 -23 38 -74 53 -280 30 -418 -16 -102 -16 -105 2
-105 42 0 76 116 76 255 -1 126 -16 213 -55 306 -6 13 1 20 31 29 48 16 214
98 273 136 92 59 207 154 270 224 36 40 70 77 75 84 6 6 22 27 35 46 13 19 27
37 30 40 19 15 113 188 145 265 88 214 111 335 109 590 -2 214 -35 371 -122
580 -35 83 -126 241 -153 265 -3 3 -18 23 -34 45 -31 42 -166 180 -223 228
-80 68 -249 171 -362 220 -45 20 -264 84 -309 91 -19 3 -38 12 -43 20 -16 28
-210 226 -222 226 -6 0 -35 -26 -63 -58z"/>
<path d="M3679 3913 c-21 -5 -41 -50 -33 -75 14 -44 85 -42 99 2 13 42 -24 82
-66 73z"/>
<path d="M1004 3687 c-120 -46 -160 -204 -75 -295 42 -43 71 -56 128 -54 46 1
62 6 92 30 82 66 100 156 48 245 -15 26 -40 53 -55 61 -40 20 -103 26 -138 13z"/>
<path d="M3970 1592 c-29 -23 -30 -86 -3 -114 48 -48 126 -12 126 58 0 65 -72
97 -123 56z"/>
<path d="M1537 1366 c-25 -19 -13 -64 19 -72 46 -12 72 37 38 70 -19 19 -33
20 -57 2z"/>
<path d="M1290 1122 c-44 -36 -25 -120 31 -137 10 -4 34 1 53 10 72 34 53 136
-26 143 -23 2 -43 -4 -58 -16z"/>
<path d="M3229 869 c-16 -30 3 -69 34 -69 29 0 47 17 47 45 0 45 -60 63 -81
24z"/>
</g>
</svg>
